<svg width="500" height="500" viewBox="0 0 500 500" fill="none" xmlns="http://www.w3.org/2000/svg">
<path d="M102 284.592V24.1745C102 18.7935 109 16.7089 111.944 21.213L178.384 122.861C179.946 125.251 183.097 126.017 185.582 124.609L359.993 25.8129C365.484 22.7026 370.952 29.9072 366.48 34.359L111.231 288.428C107.818 291.826 102 289.408 102 284.592Z" fill="white"/>
<path d="M103.607 321.739L217.55 209.076C220.04 206.614 224.178 207.129 225.989 210.126L387.825 477.971C390.588 482.544 385.757 487.931 380.911 485.679L189.624 396.779C187.422 395.756 184.808 396.324 183.229 398.17L111.527 482.016C108.259 485.837 102 483.526 102 478.498V325.588C102 324.142 102.579 322.756 103.607 321.739Z" fill="white"/>
</svg>
